<svg width="33" height="32" viewBox="0 0 33 32" fill="none" xmlns="http://www.w3.org/2000/svg">
<path d="M22.2023 10.6673C24.3238 10.6673 26.3585 11.5101 27.8587 13.0103C29.3588 14.5104 30.2016 16.5451 30.2016 18.6667V27.9992H24.8687V18.6667C24.8687 17.9595 24.5878 17.2813 24.0877 16.7812C23.5877 16.2811 22.9094 16.0002 22.2023 16.0002C21.4951 16.0002 20.8168 16.2811 20.3168 16.7812C19.8167 17.2813 19.5358 17.9595 19.5358 18.6667V27.9992H14.2029V18.6667C14.2029 16.5451 15.0457 14.5104 16.5459 13.0103C18.046 11.5101 20.0807 10.6673 22.2023 10.6673Z" stroke="white" stroke-width="1.33322" stroke-linecap="round" stroke-linejoin="round"/>
<path d="M8.87001 12.0005H3.53711V27.9992H8.87001V12.0005Z" stroke="white" stroke-width="1.33322" stroke-linecap="round" stroke-linejoin="round"/>
<path d="M6.20356 8.00087C7.6762 8.00087 8.87001 6.80706 8.87001 5.33442C8.87001 3.86178 7.6762 2.66797 6.20356 2.66797C4.73092 2.66797 3.53711 3.86178 3.53711 5.33442C3.53711 6.80706 4.73092 8.00087 6.20356 8.00087Z" stroke="white" stroke-width="1.33322" stroke-linecap="round" stroke-linejoin="round"/>
</svg>
