<svg width="33" height="32" viewBox="0 0 33 32" fill="none" xmlns="http://www.w3.org/2000/svg">
<path d="M24.1992 8.66748H24.2125M10.2003 2.66797H23.5326C27.2142 2.66797 30.1987 5.65249 30.1987 9.33409V22.6663C30.1987 26.3479 27.2142 29.3324 23.5326 29.3324H10.2003C6.51871 29.3324 3.53418 26.3479 3.53418 22.6663V9.33409C3.53418 5.65249 6.51871 2.66797 10.2003 2.66797ZM22.1993 15.1603C22.3639 16.2698 22.1743 17.403 21.6577 18.3987C21.1411 19.3943 20.3237 20.2017 19.3217 20.7061C18.3198 21.2104 17.1843 21.3859 16.0769 21.2077C14.9694 21.0295 13.9463 20.5066 13.1532 19.7135C12.36 18.9203 11.8371 17.8972 11.6589 16.7898C11.4807 15.6823 11.6563 14.5469 12.1606 13.5449C12.6649 12.543 13.4723 11.7255 14.4679 11.2089C15.4636 10.6923 16.5968 10.5028 17.7064 10.6673C18.8382 10.8351 19.886 11.3625 20.695 12.1716C21.5041 12.9807 22.0315 14.0285 22.1993 15.1603Z" stroke="white" stroke-width="1.33322" stroke-linecap="round" stroke-linejoin="round"/>
</svg>
