<svg width="33" height="34" viewBox="0 0 33 34" fill="none" xmlns="http://www.w3.org/2000/svg">
<mask id="mask0_1786_6182" style="mask-type:luminance" maskUnits="userSpaceOnUse" x="4" y="3" width="24" height="28">
<path fill-rule="evenodd" clip-rule="evenodd" d="M4.5 3.64453H27.2362V30.1907H4.5V3.64453Z" fill="white"/>
</mask>
<g mask="url(#mask0_1786_6182)">
<path fill-rule="evenodd" clip-rule="evenodd" d="M10.5974 5.65019C8.38809 5.65019 6.55342 7.44458 6.50142 9.65749V23.9899C6.45342 26.2643 8.24009 28.1363 10.4868 28.1857H21.2641C23.4894 28.1055 25.2508 26.2643 25.2361 23.9966V12.1057L19.0574 5.65019H10.6134H10.5974ZM10.6134 30.1914H10.4454C7.09609 30.1192 4.42942 27.3273 4.50142 23.9685V9.63342C4.58009 6.31607 7.31076 3.64453 10.5934 3.64453H10.6174H19.4828C19.7548 3.64453 20.0148 3.75551 20.2041 3.95207L26.9588 11.008C27.1361 11.1938 27.2361 11.4439 27.2361 11.7019V23.9899C27.2574 27.3447 24.6494 30.0711 21.2988 30.1914H10.6134Z" fill="white"/>
</g>
<path fill-rule="evenodd" clip-rule="evenodd" d="M26.2308 12.9672H22.5588C20.1174 12.9606 18.1348 10.9656 18.1348 8.52137V4.63173C18.1348 4.07817 18.5828 3.62891 19.1348 3.62891C19.6868 3.62891 20.1348 4.07817 20.1348 4.63173V8.52137C20.1348 9.86382 21.2228 10.9576 22.5614 10.9616H26.2308C26.7828 10.9616 27.2308 11.4109 27.2308 11.9644C27.2308 12.518 26.7828 12.9672 26.2308 12.9672" fill="white"/>
<path fill-rule="evenodd" clip-rule="evenodd" d="M15.3574 23.2843C14.8054 23.2843 14.3574 22.835 14.3574 22.2814V14.204C14.3574 13.6504 14.8054 13.2012 15.3574 13.2012C15.9094 13.2012 16.3574 13.6504 16.3574 14.204V22.2814C16.3574 22.835 15.9094 23.2843 15.3574 23.2843" fill="white"/>
<path fill-rule="evenodd" clip-rule="evenodd" d="M15.3544 23.2831C15.089 23.2831 14.833 23.1775 14.6464 22.9876L11.5197 19.8401C11.1304 19.447 11.1317 18.8118 11.5224 18.4214C11.9144 18.031 12.5477 18.031 12.937 18.4241L15.3544 20.8603L17.7717 18.4241C18.161 18.031 18.7944 18.031 19.1863 18.4214C19.577 18.8118 19.5783 19.447 19.189 19.8401L16.0624 22.9876C15.8757 23.1775 15.6197 23.2831 15.3544 23.2831" fill="white"/>
</svg>
