<svg width="32" height="33" viewBox="0 0 32 33" fill="none" xmlns="http://www.w3.org/2000/svg">
<path d="M21.3337 10.6984C23.4554 10.6984 25.4902 11.5436 26.9905 13.0482C28.4908 14.5527 29.3337 16.5933 29.3337 18.721V28.0808H24.0003V18.721C24.0003 18.0118 23.7194 17.3316 23.2193 16.8301C22.7192 16.3286 22.0409 16.0468 21.3337 16.0468C20.6264 16.0468 19.9481 16.3286 19.448 16.8301C18.9479 17.3316 18.667 18.0118 18.667 18.721V28.0808H13.3337V18.721C13.3337 16.5933 14.1765 14.5527 15.6768 13.0482C17.1771 11.5436 19.2119 10.6984 21.3337 10.6984Z" fill="#5D00FF"/>
<path d="M8.00032 12.0355H2.66699V28.0808H8.00032V12.0355Z" fill="#5D00FF"/>
<path d="M5.33366 8.0242C6.80642 8.0242 8.00032 6.82691 8.00032 5.34999C8.00032 3.87307 6.80642 2.67578 5.33366 2.67578C3.8609 2.67578 2.66699 3.87307 2.66699 5.34999C2.66699 6.82691 3.8609 8.0242 5.33366 8.0242Z" fill="#5D00FF"/>
</svg>
