<svg width="32" height="33" viewBox="0 0 32 33" fill="none" xmlns="http://www.w3.org/2000/svg">
<g clip-path="url(#clip0_1082_4588)">
<path d="M22.4222 9.49697C24.1016 8.03358 26.5614 8.29593 27.8843 10.0881C28.0824 10.3565 28.3211 10.6702 28.6302 11.057C30.5921 13.511 30.5921 17.0645 28.6195 19.5098C27.163 21.3151 25.6363 23.1366 23.9294 24.8435C22.2225 26.5503 20.401 28.0771 18.5957 29.5335C16.1504 31.5061 12.5969 31.5061 10.1429 29.5443C9.70815 29.1967 9.36682 28.9395 9.07891 28.7293C7.34192 27.4604 7.04736 25.0838 8.4541 23.4563C9.09452 22.7155 9.77335 21.9971 10.4427 21.2924C11.3673 20.319 12.9544 20.2106 13.9673 21.0918C14.1451 21.2465 14.3711 21.4508 14.6837 21.7439C17.4909 20.0758 19.1922 18.3538 20.8298 15.5978C20.5314 15.2796 20.3247 15.0508 20.1687 14.8711C19.2893 13.8588 19.3968 12.2764 20.3765 11.3608C21.0469 10.7342 21.7266 10.103 22.4222 9.49697Z" fill="#09A186"/>
<path fill-rule="evenodd" clip-rule="evenodd" d="M5.13612 4.30253C7.97049 1.97035 11.4205 0.874375 14.8231 0.953181C15.7541 0.974744 16.4914 1.74695 16.4698 2.67795C16.4482 3.60895 15.676 4.34621 14.745 4.32463C12.12 4.26384 9.46555 5.1074 7.27886 6.90665C5.17686 8.63622 3.85856 10.9596 3.36336 13.4348C3.18067 14.348 2.29232 14.9401 1.37916 14.7575C0.466001 14.5748 -0.126162 13.6864 0.0565275 12.7733C0.698651 9.56362 2.41211 6.54389 5.13612 4.30253ZM9.61771 9.63305C11.054 8.45126 12.8042 7.89533 14.5285 7.93526C15.4595 7.95682 16.1967 8.72903 16.1751 9.66005C16.1536 10.591 15.3814 11.3283 14.4504 11.3067C13.5038 11.2848 12.5491 11.5883 11.7604 12.2372C11.0022 12.861 10.5281 13.6966 10.3496 14.589C10.1669 15.5021 9.27856 16.0943 8.36541 15.9116C7.45224 15.7289 6.86008 14.8405 7.04277 13.9274C7.3682 12.3007 8.23749 10.7687 9.61771 9.63305ZM29.0082 9.25851C27.1947 6.80208 23.7871 6.44306 21.4923 8.44247C20.7764 9.06624 20.0809 9.71239 19.4103 10.3391C17.9091 11.7422 17.7121 14.1566 19.0685 15.7595C17.895 17.5385 16.6396 18.8022 14.8334 19.9943C13.2278 18.6443 10.8222 18.8503 9.41714 20.3296C8.74916 21.0329 8.04904 21.7734 7.38432 22.5424C5.42948 24.8039 5.85664 28.1254 8.24329 29.8689C8.51611 30.0681 8.84116 30.313 9.25873 30.6468C12.2252 33.0183 16.5104 33.0205 19.4712 30.632C21.287 29.1673 23.1553 27.6029 24.9162 25.8419C26.6772 24.0811 28.2415 22.2128 29.7063 20.397C32.0948 17.4362 32.0925 13.151 29.7211 10.1845C29.4237 9.8125 29.1959 9.51308 29.0082 9.25851ZM23.3386 10.5613C24.4029 9.63394 25.9144 9.7996 26.7471 10.9276C26.9553 11.2097 27.2049 11.5378 27.5259 11.9393C29.0781 13.881 29.0759 16.7026 27.5189 18.6325C26.0713 20.4272 24.5818 22.202 22.9289 23.8549C21.2762 25.5076 19.5014 26.997 17.7068 28.4447C15.7769 30.0016 12.9552 30.0038 11.0136 28.4516C10.5617 28.0904 10.204 27.8208 9.90105 27.5996C8.81369 26.8053 8.65175 25.3736 9.5104 24.3803C10.1265 23.6674 10.784 22.9712 11.4548 22.265C11.8843 21.8128 12.6177 21.791 13.0383 22.1569C13.199 22.2967 13.4116 22.4885 13.7159 22.7739C14.1724 23.2019 14.8569 23.2764 15.3948 22.9568C18.4059 21.1675 20.2748 19.2761 22.031 16.3206C22.3507 15.7826 22.2761 15.0982 21.8482 14.6417C21.5576 14.3318 21.3636 14.1167 21.2227 13.9546C20.856 13.5324 20.8831 12.8093 21.3293 12.3922C21.9994 11.7659 22.6632 11.1497 23.3386 10.5613Z" fill="#09A186"/>
</g>
<defs>
<clipPath id="clip0_1082_4588">
<rect width="31.4754" height="31.4754" fill="white" transform="translate(0.0117188 0.933594)"/>
</clipPath>
</defs>
</svg>
