<svg width="48" height="48" viewBox="0 0 48 48" fill="none" xmlns="http://www.w3.org/2000/svg">
<path d="M35.4198 27.4626C37.3133 27.4626 38.8484 25.9276 38.8484 24.034C38.8484 22.1405 37.3133 20.6055 35.4198 20.6055C33.5262 20.6055 31.9912 22.1405 31.9912 24.034C31.9912 25.9276 33.5262 27.4626 35.4198 27.4626Z" fill="#5D00FF"/>
<path d="M23.9872 27.4626C25.8807 27.4626 27.4157 25.9276 27.4157 24.034C27.4157 22.1405 25.8807 20.6055 23.9872 20.6055C22.0936 20.6055 20.5586 22.1405 20.5586 24.034C20.5586 25.9276 22.0936 27.4626 23.9872 27.4626Z" fill="#5D00FF"/>
<path d="M12.5545 27.4626C14.4481 27.4626 15.9831 25.9276 15.9831 24.034C15.9831 22.1405 14.4481 20.6055 12.5545 20.6055C10.661 20.6055 9.12598 22.1405 9.12598 24.034C9.12598 25.9276 10.661 27.4626 12.5545 27.4626Z" fill="#5D00FF"/>
</svg>
