<svg width="32" height="33" viewBox="0 0 32 33" fill="none" xmlns="http://www.w3.org/2000/svg">
<path fill-rule="evenodd" clip-rule="evenodd" d="M4.06667 1.78338C5.77789 1.70518 9.4161 1.59375 16.2583 1.59375C23.1004 1.59375 26.7387 1.70518 28.4499 1.78338C29.4704 1.83001 30.5024 2.45781 30.6282 3.67137C30.6625 4.00172 30.6845 4.39828 30.6845 4.87244C30.6845 5.34659 30.6625 5.74316 30.6282 6.07351C30.5134 7.18093 29.644 7.80057 28.7173 7.93591V15.0358C28.7173 18.7166 28.6265 21.4093 28.5423 23.114C28.9673 23.4004 29.2857 23.848 29.3425 24.4765C29.3617 24.6883 29.373 24.9284 29.373 25.2003C29.373 25.4722 29.3617 25.7123 29.3425 25.9241C29.2358 27.1036 28.2082 27.6462 27.2824 27.6812C25.8468 27.7355 22.915 27.8112 17.5697 27.8219V30.4462C17.5697 31.1705 16.9826 31.7577 16.2583 31.7577C15.5339 31.7577 14.9468 31.1705 14.9468 30.4462V27.8219C9.60147 27.8112 6.66975 27.7355 5.23412 27.6812C4.30839 27.6462 3.28075 27.1036 3.174 25.9241C3.15484 25.7123 3.14351 25.4722 3.14351 25.2003C3.14351 24.9284 3.15484 24.6883 3.174 24.4765C3.23088 23.848 3.54919 23.4004 3.97422 23.114C3.89008 21.4093 3.79924 18.7166 3.79924 15.0358V7.93591C2.87252 7.80057 2.00314 7.18092 1.88827 6.0735C1.85401 5.74315 1.83203 5.34659 1.83203 4.87244C1.83203 4.39828 1.85401 4.00172 1.88827 3.67138C2.01415 2.45782 3.0461 1.83001 4.06667 1.78338ZM16.2583 8.15112C20.8528 8.15112 24.0026 8.10089 26.0943 8.04417V15.0358C26.0943 18.4564 26.015 21.0033 25.9373 22.6767C24.0821 22.6271 21.0325 22.5773 16.2583 22.5773C11.484 22.5773 8.43439 22.6271 6.57924 22.6767C6.50157 21.0033 6.4222 18.4564 6.4222 15.0358V8.04417C8.51393 8.10089 11.6638 8.15112 16.2583 8.15112Z" fill="#09A186"/>
</svg>
