<svg width="32" height="33" viewBox="0 0 32 33" fill="none" xmlns="http://www.w3.org/2000/svg">
<g clip-path="url(#clip0_1453_253)">
<path d="M22.4231 9.49306C24.1026 8.02968 26.5624 8.29203 27.8853 10.0842C28.0833 10.3526 28.3221 10.6663 28.6312 11.0531C30.593 13.5071 30.593 17.0606 28.6204 19.5059C27.164 21.3111 25.6372 23.1327 23.9304 24.8396C22.2235 26.5464 20.4019 28.0732 18.5967 29.5296C16.1514 31.5022 12.5979 31.5022 10.1438 29.5404C9.70913 29.1928 9.3678 28.9356 9.07989 28.7254C7.3429 27.4565 7.04833 25.0799 8.45508 23.4524C9.09549 22.7116 9.77433 21.9932 10.4437 21.2885C11.3683 20.3151 12.9554 20.2067 13.9683 21.0879C14.1461 21.2426 14.3721 21.4469 14.6847 21.74C17.4918 20.0719 19.1931 18.3499 20.8308 15.5939C20.5324 15.2757 20.3257 15.0469 20.1697 14.8672C19.2902 13.8549 19.3978 12.2725 20.3775 11.3569C21.0479 10.7303 21.7276 10.0991 22.4231 9.49306Z" fill="#24C887"/>
<path fill-rule="evenodd" clip-rule="evenodd" d="M5.1371 4.30058C7.97146 1.96839 11.4215 0.872422 14.8241 0.951228C15.7551 0.972791 16.4923 1.745 16.4707 2.676C16.4492 3.60699 15.677 4.34426 14.746 4.32268C12.121 4.26189 9.46652 5.10545 7.27984 6.90469C5.17784 8.63427 3.85954 10.9576 3.36434 13.4329C3.18165 14.346 2.2933 14.9382 1.38014 14.7555C0.466978 14.5728 -0.125186 13.6844 0.057504 12.7713C0.699628 9.56167 2.41308 6.54194 5.1371 4.30058ZM9.61868 9.63109C11.055 8.4493 12.8052 7.89338 14.5294 7.93331C15.4604 7.95487 16.1977 8.72707 16.1761 9.65809C16.1546 10.5891 15.3823 11.3263 14.4514 11.3048C13.5047 11.2829 12.55 11.5863 11.7614 12.2352C11.0032 12.8591 10.5291 13.6947 10.3506 14.587C10.1679 15.5002 9.27954 16.0923 8.36639 15.9096C7.45322 15.727 6.86105 14.8386 7.04375 13.9254C7.36918 12.2987 8.23846 10.7668 9.61868 9.63109ZM29.0092 9.25656C27.1957 6.80013 23.7881 6.44111 21.4933 8.44051C20.7774 9.06429 20.0819 9.71043 19.4113 10.3371C17.91 11.7403 17.7131 14.1546 19.0695 15.7575C17.896 17.5365 16.6406 18.8002 14.8343 19.9923C13.2288 18.6423 10.8232 18.8483 9.41812 20.3276C8.75014 21.0309 8.05002 21.7714 7.3853 22.5404C5.43045 24.8019 5.85762 28.1235 8.24426 29.867C8.51709 30.0662 8.84214 30.311 9.25971 30.6449C12.2262 33.0163 16.5114 33.0186 19.4722 30.63C21.288 29.1653 23.1563 27.601 24.9171 25.8399C26.6782 24.0791 28.2425 22.2108 29.7072 20.395C32.0958 17.4342 32.0935 13.149 29.7221 10.1825C29.4246 9.81055 29.1969 9.51113 29.0092 9.25656ZM23.3395 10.5593C24.4039 9.63199 25.9153 9.79764 26.7481 10.9256C26.9563 11.2077 27.2058 11.5358 27.5269 11.9373C29.0791 13.879 29.0768 16.7007 27.5199 18.6305C26.0723 20.4252 24.5828 22.2 22.9299 23.8529C21.2772 25.5056 19.5024 26.9951 17.7077 28.4427C15.7778 29.9996 12.9562 30.0019 11.0145 28.4497C10.5626 28.0884 10.205 27.8188 9.90203 27.5976C8.81467 26.8033 8.65272 25.3716 9.51137 24.3783C10.1275 23.6654 10.785 22.9693 11.4558 22.263C11.8853 21.8108 12.6187 21.789 13.0393 22.1549C13.2 22.2947 13.4125 22.4866 13.7169 22.772C14.1734 23.1999 14.8579 23.2745 15.3958 22.9548C18.4068 21.1656 20.2758 19.2741 22.032 16.3186C22.3516 15.7807 22.2771 15.0962 21.8491 14.6398C21.5586 14.3298 21.3646 14.1148 21.2237 13.9526C20.857 13.5304 20.8841 12.8073 21.3303 12.3903C22.0004 11.764 22.6642 11.1477 23.3395 10.5593Z" fill="#24C887"/>
</g>
<defs>
<clipPath id="clip0_1453_253">
<rect width="31.4754" height="31.4754" fill="white" transform="translate(0.0126953 0.933594)"/>
</clipPath>
</defs>
</svg>
