<svg width="32" height="34" viewBox="0 0 32 34" fill="none" xmlns="http://www.w3.org/2000/svg">
<path d="M21.3327 11.6515C23.4544 11.6515 25.4892 12.4968 26.9895 14.0013C28.4898 15.5058 29.3327 17.5464 29.3327 19.6742V29.0339H23.9993V19.6742C23.9993 18.9649 23.7184 18.2847 23.2183 17.7832C22.7182 17.2817 22.0399 16.9999 21.3327 16.9999C20.6254 16.9999 19.9472 17.2817 19.4471 17.7832C18.947 18.2847 18.666 18.9649 18.666 19.6742V29.0339H13.3327V19.6742C13.3327 17.5464 14.1755 15.5058 15.6758 14.0013C17.1761 12.4968 19.2109 11.6515 21.3327 11.6515Z" fill="#1A9972"/>
<path d="M7.99935 12.9886H2.66602V29.0339H7.99935V12.9886Z" fill="#1A9972"/>
<path d="M5.33268 8.97732C6.80544 8.97732 7.99935 7.78004 7.99935 6.30311C7.99935 4.82619 6.80544 3.62891 5.33268 3.62891C3.85992 3.62891 2.66602 4.82619 2.66602 6.30311C2.66602 7.78004 3.85992 8.97732 5.33268 8.97732Z" fill="#1A9972"/>
</svg>
