<svg width="32" height="32" viewBox="0 0 32 32" fill="none" xmlns="http://www.w3.org/2000/svg">
<g clip-path="url(#clip0_987_99732)">
<path d="M22.4026 8.56142C24.0821 7.09804 26.5419 7.36038 27.8647 9.15257C28.0628 9.42092 28.3016 9.73466 28.6107 10.1214C30.5725 12.5755 30.5725 16.1289 28.5999 18.5743C27.1435 20.3795 25.6167 22.2011 23.9099 23.9079C22.203 25.6148 20.3814 27.1416 18.5762 28.598C16.1308 30.5706 12.5774 30.5706 10.1233 28.6088C9.68862 28.2612 9.34729 28.004 9.05938 27.7938C7.32239 26.5249 7.02782 24.1483 8.43457 22.5208C9.07499 21.78 9.75382 21.0616 10.4232 20.3568C11.3478 19.3834 12.9349 19.2751 13.9478 20.1563C14.1256 20.3109 14.3516 20.5153 14.6642 20.8083C17.4713 19.1403 19.1726 17.4182 20.8103 14.6623C20.5119 14.344 20.3052 14.1152 20.1492 13.9356C19.2697 12.9232 19.3773 11.3409 20.357 10.4252C21.0274 9.79867 21.7071 9.16748 22.4026 8.56142Z" fill="#F7F7F7"/>
<path fill-rule="evenodd" clip-rule="evenodd" d="M5.1205 3.36796C7.95486 1.03578 11.4049 -0.0601952 14.8075 0.018611C15.7385 0.0401735 16.4757 0.812381 16.4541 1.74338C16.4326 2.67438 15.6604 3.41164 14.7294 3.39006C12.1044 3.32927 9.44992 4.17283 7.26323 5.97208C5.16124 7.70165 3.84294 10.025 3.34774 12.5003C3.16504 13.4134 2.2767 14.0056 1.36354 13.8229C0.450376 13.6402 -0.141787 12.7518 0.0409025 11.8387C0.683026 8.62905 2.39648 5.60932 5.1205 3.36796ZM9.60208 8.69848C11.0383 7.51669 12.7886 6.96076 14.5128 7.00069C15.4438 7.02225 16.1811 7.79446 16.1595 8.72548C16.138 9.65647 15.3657 10.3937 14.4347 10.3722C13.4881 10.3502 12.5334 10.6537 11.7448 11.3026C10.9866 11.9265 10.5125 12.7621 10.334 13.6544C10.1513 14.5675 9.26293 15.1597 8.34979 14.977C7.43662 14.7943 6.84445 13.906 7.02715 12.9928C7.35258 11.3661 8.22186 9.83415 9.60208 8.69848ZM28.9926 8.32394C27.1791 5.86751 23.7715 5.50849 21.4767 7.5079C20.7608 8.13167 20.0653 8.77782 19.3947 9.40451C17.8934 10.8077 17.6965 13.222 19.0529 14.8249C17.8794 16.6039 16.624 17.8676 14.8177 19.0597C13.2122 17.7097 10.8066 17.9157 9.40152 19.395C8.73354 20.0983 8.03341 20.8388 7.3687 21.6078C5.41385 23.8693 5.84102 27.1909 8.22766 28.9344C8.50049 29.1336 8.82554 29.3784 9.2431 29.7123C12.2096 32.0837 16.4948 32.086 19.4556 29.6974C21.2714 28.2327 23.1397 26.6684 24.9005 24.9073C26.6616 23.1465 28.2259 21.2782 29.6906 19.4624C32.0792 16.5016 32.0769 12.2164 29.7055 9.24992C29.408 8.87793 29.1803 8.57851 28.9926 8.32394ZM23.3229 9.62673C24.3873 8.69937 25.8987 8.86503 26.7315 9.99301C26.9397 10.2751 27.1892 10.6032 27.5103 11.0047C29.0625 12.9464 29.0602 15.7681 27.5033 17.6979C26.0557 19.4926 24.5662 21.2674 22.9133 22.9203C21.2606 24.573 19.4858 26.0625 17.6911 27.5101C15.7612 29.067 12.9396 29.0693 10.9979 27.5171C10.546 27.1558 10.1884 26.8862 9.88543 26.665C8.79806 25.8707 8.63612 24.439 9.49477 23.4457C10.1109 22.7328 10.7684 22.0366 11.4392 21.3304C11.8687 20.8782 12.6021 20.8564 13.0227 21.2223C13.1834 21.3621 13.3959 21.554 13.7003 21.8393C14.1568 22.2673 14.8413 22.3418 15.3792 22.0222C18.3902 20.233 20.2592 18.3415 22.0154 15.386C22.335 14.8481 22.2605 14.1636 21.8325 13.7072C21.542 13.3972 21.348 13.1822 21.2071 13.02C20.8404 12.5978 20.8675 11.8747 21.3137 11.4577C21.9838 10.8313 22.6476 10.2151 23.3229 9.62673Z" fill="#F7F7F7"/>
</g>
<defs>
<clipPath id="clip0_987_99732">
<rect width="31.4754" height="31.4754" fill="white"/>
</clipPath>
</defs>
</svg>
