<svg width="32" height="32" viewBox="0 0 32 32" fill="none" xmlns="http://www.w3.org/2000/svg">
<g clip-path="url(#clip0_954_637)">
<path fill-rule="evenodd" clip-rule="evenodd" d="M3.56667 1.11443C5.27789 1.03623 8.9161 0.924805 15.7583 0.924805C22.6004 0.924805 26.2387 1.03623 27.9499 1.11443C28.9704 1.16107 30.0024 1.78886 30.1282 3.00242C30.1625 3.33277 30.1845 3.72933 30.1845 4.20349C30.1845 4.67765 30.1625 5.07421 30.1282 5.40456C30.0134 6.51198 29.144 7.13162 28.2173 7.26697V14.3669C28.2173 18.0477 28.1265 20.7404 28.0423 22.4451C28.4673 22.7315 28.7857 23.1791 28.8425 23.8075C28.8617 24.0194 28.873 24.2595 28.873 24.5314C28.873 24.8032 28.8617 25.0434 28.8425 25.2552C28.7358 26.4346 27.7082 26.9773 26.7824 27.0123C25.3468 27.0666 22.415 27.1422 17.0697 27.153V29.7773C17.0697 30.5016 16.4826 31.0887 15.7583 31.0887C15.0339 31.0887 14.4468 30.5016 14.4468 29.7773V27.153C9.10147 27.1422 6.16975 27.0666 4.73412 27.0123C3.80839 26.9773 2.78075 26.4346 2.674 25.2552C2.65484 25.0434 2.64351 24.8032 2.64351 24.5314C2.64351 24.2595 2.65484 24.0194 2.674 23.8075C2.73088 23.1791 3.04919 22.7315 3.47422 22.4451C3.39008 20.7404 3.29924 18.0477 3.29924 14.3669V7.26697C2.37252 7.13162 1.50314 6.51198 1.38827 5.40455C1.35401 5.07421 1.33203 4.67765 1.33203 4.20349C1.33203 3.72933 1.35401 3.33278 1.38827 3.00243C1.51415 1.78887 2.5461 1.16107 3.56667 1.11443ZM15.7583 7.48218C20.3528 7.48218 23.5026 7.43195 25.5943 7.37523V14.3669C25.5943 17.7875 25.515 20.3344 25.4373 22.0077C23.5821 21.9581 20.5325 21.9084 15.7583 21.9084C10.984 21.9084 7.93439 21.9581 6.07924 22.0077C6.00157 20.3344 5.9222 17.7875 5.9222 14.3669V7.37523C8.01393 7.43195 11.1638 7.48218 15.7583 7.48218Z" fill="#F7F7F7"/>
</g>
<defs>
<clipPath id="clip0_954_637">
<rect width="31.4754" height="31.4754" fill="white" transform="translate(0.0117188 0.262695)"/>
</clipPath>
</defs>
</svg>
