<svg width="32" height="33" viewBox="0 0 32 33" fill="none" xmlns="http://www.w3.org/2000/svg">
<path fill-rule="evenodd" clip-rule="evenodd" d="M4.0696 1.78728C5.78082 1.70909 9.41903 1.59766 16.2612 1.59766C23.1034 1.59766 26.7416 1.70909 28.4528 1.78728C29.4733 1.83392 30.5053 2.46171 30.6312 3.67527C30.6655 4.00562 30.6874 4.40219 30.6874 4.87634C30.6874 5.3505 30.6655 5.74706 30.6312 6.07741C30.5163 7.18483 29.6469 7.80447 28.7202 7.93982V15.0398C28.7202 18.7205 28.6294 21.4133 28.5453 23.1179C28.9702 23.4043 29.2886 23.8519 29.3455 24.4804C29.3646 24.6922 29.3759 24.9323 29.3759 25.2042C29.3759 25.4761 29.3646 25.7162 29.3455 25.928C29.2387 27.1075 28.2111 27.6501 27.2853 27.6851C25.8497 27.7394 22.918 27.8151 17.5727 27.8258V30.4501C17.5727 31.1744 16.9855 31.7616 16.2612 31.7616C15.5369 31.7616 14.9497 31.1744 14.9497 30.4501V27.8258C9.6044 27.8151 6.67268 27.7394 5.23705 27.6851C4.31132 27.6501 3.28368 27.1075 3.17693 25.928C3.15777 25.7162 3.14644 25.4761 3.14644 25.2042C3.14644 24.9323 3.15777 24.6922 3.17693 24.4804C3.23381 23.8519 3.55212 23.4043 3.97714 23.1179C3.89301 21.4133 3.80217 18.7205 3.80217 15.0398V7.93982C2.87545 7.80447 2.00607 7.18483 1.8912 6.07741C1.85694 5.74706 1.83496 5.3505 1.83496 4.87634C1.83496 4.40219 1.85694 4.00563 1.8912 3.67528C2.01708 2.46172 3.04903 1.83392 4.0696 1.78728ZM16.2612 8.15503C20.8557 8.15503 24.0055 8.1048 26.0973 8.04808V15.0398C26.0973 18.4603 26.0179 21.0072 25.9402 22.6806C24.0851 22.631 21.0354 22.5813 16.2612 22.5813C11.487 22.5813 8.43732 22.631 6.58217 22.6806C6.5045 21.0072 6.42513 18.4603 6.42513 15.0398V8.04808C8.51686 8.1048 11.6667 8.15503 16.2612 8.15503Z" fill="#64997F"/>
</svg>
