<svg width="32" height="32" viewBox="0 0 32 32" fill="none" xmlns="http://www.w3.org/2000/svg">
<g clip-path="url(#clip0_1445_1076)">
<path fill-rule="evenodd" clip-rule="evenodd" d="M16.0027 6.641C13.7407 11.7527 8.8254 15.4273 3.0029 15.918C3.0027 15.9475 3.0026 15.977 3.0026 16.0065C3.0026 23.1862 8.82287 29.0065 16.0026 29.0065C23.1823 29.0065 29.0026 23.1862 29.0026 16.0065L29.0025 15.9686L29.0023 15.918C23.1799 15.4272 18.2646 11.7526 16.0027 6.641ZM28.708 6.83844C30.5712 9.41597 31.6693 12.583 31.6693 16.0065C31.6693 24.659 24.6551 31.6732 16.0026 31.6732C7.35014 31.6732 0.335938 24.659 0.335938 16.0065C0.335938 11.8593 1.94737 8.08844 4.57826 5.28595C7.42127 2.25716 11.4549 0.359501 15.9326 0.339856L15.9528 0.339921L16.0026 0.339844L16.0525 0.339922L16.0727 0.339856C21.1465 0.362116 25.6503 2.79577 28.4976 6.55411C28.5687 6.64807 28.6389 6.74284 28.708 6.83844ZM11.9052 21.7906C11.5011 21.175 10.6745 21.0034 10.0589 21.4074C9.44327 21.8114 9.27167 22.638 9.67574 23.2537C11.1131 25.444 13.6186 26.4615 16.0025 26.4615C18.3865 26.4615 20.892 25.444 22.3294 23.2537C22.7335 22.638 22.5619 21.8114 21.9462 21.4074C21.3306 21.0034 20.504 21.175 20.0999 21.7906C19.2571 23.075 17.6905 23.7948 16.0025 23.7948C14.3146 23.7948 12.7481 23.075 11.9052 21.7906ZM11.442 14.0221C12.1783 14.0221 12.7753 14.6191 12.7753 15.3554V16.6585C12.7753 17.3949 12.1783 17.9918 11.442 17.9918C10.7056 17.9918 10.1087 17.3949 10.1087 16.6585V15.3554C10.1087 14.6191 10.7056 14.0221 11.442 14.0221ZM19.2299 15.3554C19.2299 14.6191 19.8269 14.0221 20.5632 14.0221C21.2996 14.0221 21.8965 14.6191 21.8965 15.3554V16.6585C21.8965 17.3949 21.2996 17.9918 20.5632 17.9918C19.8269 17.9918 19.2299 17.3949 19.2299 16.6585V15.3554Z" fill="#24C887"/>
</g>
<defs>
<clipPath id="clip0_1445_1076">
<rect width="32" height="32" fill="white"/>
</clipPath>
</defs>
</svg>
