<svg width="48" height="32" viewBox="0 0 48 32" fill="none" xmlns="http://www.w3.org/2000/svg">
<mask id="path-1-inside-1_1938_4662" fill="white">
<path d="M36.3545 8.96094C43.9734 8.96113 46.5402 14.7214 46.8711 17.6016V21.582H31.6914C31.89 25.1737 33.9735 26.4355 36.8506 26.4355C39.1521 26.4353 40.5211 24.7524 40.918 23.9111H46.8711C46.8711 27.1147 42.6047 30.9979 36.3545 30.998C28.6161 30.998 26.2345 24.8828 26.2344 21.582V17.6016C26.433 14.7214 28.7353 8.96094 36.3545 8.96094ZM15.6182 1C17.5034 1.0001 22.8602 2.35928 22.8604 8.18359C22.8604 12.8433 20.1489 14.7854 18.793 15.1738C20.5127 15.4976 23.952 17.5036 23.9521 22.9395C23.9521 28.3759 18.7924 30.2528 16.2129 30.5117H1.13281V1H15.6182ZM6.9873 25.6602H14.627C16.1151 25.6601 18 24.7861 18 21.1943C18 18.3209 15.2882 17.8616 14.3291 17.7969H6.9873V25.6602ZM36.3535 13.5205C32.9807 13.5205 31.6908 16.1416 31.6904 17.792H40.917C40.7844 16.368 39.7262 13.5205 36.3535 13.5205ZM6.9873 12.9424H14.627C16.115 12.9422 17.2061 11.4862 17.2061 8.86523C17.206 6.7684 15.2882 6.11453 14.3291 6.0498H6.9873V12.9424ZM43.9922 6.24121H29.1104V2.74707H43.9922V6.24121Z"/>
</mask>
<path d="M36.3545 8.96094L36.3545 7.62771H36.3545V8.96094ZM46.8711 17.6016H48.2043V17.5252L48.1956 17.4494L46.8711 17.6016ZM46.8711 21.582V22.9153H48.2043V21.582H46.8711ZM31.6914 21.582V20.2488H30.2824L30.3602 21.6556L31.6914 21.582ZM36.8506 26.4355L36.8506 27.7688L36.8507 27.7688L36.8506 26.4355ZM40.918 23.9111V22.5779H40.0727L39.7122 23.3424L40.918 23.9111ZM46.8711 23.9111H48.2043V22.5779H46.8711V23.9111ZM36.3545 30.998L36.3545 32.3313L36.3545 32.3313L36.3545 30.998ZM26.2344 21.582L24.9012 21.582L24.9012 21.5821L26.2344 21.582ZM26.2344 17.6016L24.9043 17.5098L24.9012 17.5556V17.6016H26.2344ZM15.6182 1L15.6182 -0.333225H15.6182V1ZM22.8604 8.18359L24.1936 8.18359L24.1936 8.18356L22.8604 8.18359ZM18.793 15.1738L18.4259 13.8921L18.5463 16.484L18.793 15.1738ZM23.9521 22.9395L25.2854 22.9395L25.2854 22.9394L23.9521 22.9395ZM16.2129 30.5117V31.8449H16.2796L16.346 31.8383L16.2129 30.5117ZM1.13281 30.5117H-0.200412V31.8449H1.13281V30.5117ZM1.13281 1V-0.333225H-0.200412V1H1.13281ZM6.9873 25.6602H5.65408V26.9934H6.9873V25.6602ZM14.627 25.6602L14.627 26.9934L14.627 26.9934L14.627 25.6602ZM18 21.1943L19.3332 21.1943L19.3332 21.1943L18 21.1943ZM14.3291 17.7969L14.4189 16.4667L14.374 16.4637H14.3291V17.7969ZM6.9873 17.7969V16.4637H5.65408V17.7969H6.9873ZM36.3535 13.5205L36.3535 12.1873H36.3535V13.5205ZM31.6904 17.792L30.3572 17.7917L30.3569 19.1252H31.6904V17.792ZM40.917 17.792V19.1252H42.3801L42.2445 17.6684L40.917 17.792ZM6.9873 12.9424H5.65408V14.2756H6.9873V12.9424ZM14.627 12.9424L14.627 14.2756L14.6271 14.2756L14.627 12.9424ZM17.2061 8.86523L18.5393 8.86523L18.5393 8.8652L17.2061 8.86523ZM14.3291 6.0498L14.4189 4.71961L14.374 4.71658H14.3291V6.0498ZM6.9873 6.0498V4.71658H5.65408V6.0498H6.9873ZM43.9922 6.24121V7.57444H45.3254V6.24121H43.9922ZM29.1104 6.24121H27.7771V7.57444H29.1104V6.24121ZM29.1104 2.74707V1.41385H27.7771V2.74707H29.1104ZM43.9922 2.74707H45.3254V1.41385H43.9922V2.74707ZM36.3545 8.96094L36.3545 10.2942C39.7856 10.2942 41.9745 11.5739 43.359 13.0978C44.7824 14.6645 45.4086 16.5528 45.5466 17.7537L46.8711 17.6016L48.1956 17.4494C48.0027 15.7702 47.18 13.3383 45.3326 11.3048C43.4462 9.22844 40.5423 7.62782 36.3545 7.62771L36.3545 8.96094ZM46.8711 17.6016H45.5379V21.582H46.8711H48.2043V17.6016H46.8711ZM46.8711 21.582V20.2488H31.6914V21.582V22.9153H46.8711V21.582ZM31.6914 21.582L30.3602 21.6556C30.4734 23.7024 31.1431 25.3077 32.4064 26.3743C33.6427 27.4182 35.2401 27.7688 36.8506 27.7688V26.4355V25.1023C35.584 25.1023 34.7011 24.822 34.1267 24.337C33.5793 23.8748 33.108 23.0533 33.0226 21.5084L31.6914 21.582ZM36.8506 26.4355L36.8507 27.7688C39.8503 27.7685 41.5969 25.5969 42.1238 24.4799L40.918 23.9111L39.7122 23.3424C39.4454 23.908 38.4539 25.1022 36.8505 25.1023L36.8506 26.4355ZM40.918 23.9111V25.2444H46.8711V23.9111V22.5779H40.918V23.9111ZM46.8711 23.9111H45.5379C45.5379 24.9408 44.8131 26.3601 43.1621 27.5852C41.5531 28.7793 39.2049 29.6648 36.3545 29.6648L36.3545 30.998L36.3545 32.3313C39.7543 32.3312 42.6644 31.275 44.7511 29.7265C46.7959 28.2091 48.2043 26.085 48.2043 23.9111H46.8711ZM36.3545 30.998V29.6648C32.8852 29.6648 30.7385 28.316 29.4312 26.6918C28.0805 25.0138 27.5677 22.9641 27.5676 21.582L26.2344 21.582L24.9012 21.5821C24.9013 23.5007 25.5793 26.159 27.3541 28.3638C29.1722 30.6225 32.0854 32.3313 36.3545 32.3313V30.998ZM26.2344 21.582H27.5676V17.6016H26.2344H24.9012V21.582H26.2344ZM26.2344 17.6016L27.5644 17.6933C27.6471 16.4948 28.1847 14.6214 29.5213 13.072C30.8159 11.5712 32.9251 10.2942 36.3545 10.2942V8.96094V7.62771C32.1647 7.62771 29.3132 9.23095 27.5022 11.3304C25.7331 13.3812 25.0203 15.8282 24.9043 17.5098L26.2344 17.6016ZM15.6182 1L15.6181 2.33322C16.3335 2.33326 17.8745 2.61382 19.1979 3.51119C20.4484 4.35906 21.5271 5.76135 21.5271 8.18363L22.8604 8.18359L24.1936 8.18356C24.1935 4.78152 22.5937 2.59207 20.6944 1.30424C18.8681 0.0659123 16.788 -0.333165 15.6182 -0.333225L15.6182 1ZM22.8604 8.18359H21.5271C21.5271 12.2411 19.2169 13.6656 18.4259 13.8921L18.793 15.1738L19.1601 16.4555C21.081 15.9053 24.1936 13.4454 24.1936 8.18359H22.8604ZM18.793 15.1738L18.5463 16.484C19.7035 16.7019 22.6188 18.2111 22.6189 22.9395L23.9521 22.9395L25.2854 22.9394C25.2852 16.796 21.3219 14.2932 19.0396 13.8636L18.793 15.1738ZM23.9521 22.9395H22.6189C22.6189 25.1612 21.5936 26.6161 20.262 27.5917C18.8815 28.6029 17.1875 29.074 16.0798 29.1852L16.2129 30.5117L16.346 31.8383C17.8179 31.6906 19.9935 31.0937 21.8377 29.7427C23.7308 28.3559 25.2854 26.1541 25.2854 22.9395H23.9521ZM16.2129 30.5117V29.1785H1.13281V30.5117V31.8449H16.2129V30.5117ZM1.13281 30.5117H2.46604V1H1.13281H-0.200412V30.5117H1.13281ZM1.13281 1V2.33322H15.6182V1V-0.333225H1.13281V1ZM6.9873 25.6602V26.9934H14.627V25.6602V24.3269H6.9873V25.6602ZM14.627 25.6602L14.627 26.9934C15.6196 26.9933 16.8465 26.6997 17.8215 25.7095C18.7999 24.716 19.3332 23.2154 19.3332 21.1943H18H16.6668C16.6668 22.765 16.2577 23.4973 15.9215 23.8387C15.5821 24.1835 15.1225 24.3269 14.6269 24.3269L14.627 25.6602ZM18 21.1943L19.3332 21.1943C19.3332 19.2363 18.3622 17.9952 17.2137 17.3012C16.1504 16.6588 14.9853 16.5049 14.4189 16.4667L14.3291 17.7969L14.2393 19.1271C14.632 19.1536 15.3023 19.2617 15.8347 19.5834C16.2819 19.8536 16.6668 20.2789 16.6668 21.1943L18 21.1943ZM14.3291 17.7969V16.4637H6.9873V17.7969V19.1301H14.3291V17.7969ZM6.9873 17.7969H5.65408V25.6602H6.9873H8.32053V17.7969H6.9873ZM36.3535 13.5205V12.1873C34.2821 12.1873 32.7473 13.0093 31.7483 14.1659C30.7857 15.2804 30.3574 16.6613 30.3572 17.7917L31.6904 17.792L33.0237 17.7923C33.0238 17.2723 33.2406 16.5174 33.7663 15.9088C34.2556 15.3423 35.0521 14.8537 36.3535 14.8537V13.5205ZM31.6904 17.792V19.1252H40.917V17.792V16.4588H31.6904V17.792ZM40.917 17.792L42.2445 17.6684C42.1599 16.7593 41.7923 15.4302 40.8966 14.296C39.959 13.1086 38.4759 12.1873 36.3535 12.1873L36.3535 13.5205L36.3535 14.8537C37.6038 14.8537 38.3362 15.3561 38.804 15.9485C39.3137 16.594 39.5416 17.4006 39.5895 17.9156L40.917 17.792ZM6.9873 12.9424V14.2756H14.627V12.9424V11.6092H6.9873V12.9424ZM14.627 12.9424L14.6271 14.2756C15.8676 14.2755 16.9086 13.6442 17.5856 12.6236C18.2356 11.6435 18.5393 10.3391 18.5393 8.86523H17.2061H15.8728C15.8728 10.0124 15.631 10.7464 15.3635 11.1497C15.123 11.5123 14.8744 11.6091 14.6268 11.6092L14.627 12.9424ZM17.2061 8.86523L18.5393 8.8652C18.5392 7.33656 17.8097 6.26724 16.9087 5.61534C16.0641 5.00423 15.0895 4.76486 14.4189 4.71961L14.3291 6.0498L14.2393 7.38C14.5277 7.39947 14.9916 7.5194 15.3457 7.77561C15.6434 7.99105 15.8728 8.29708 15.8728 8.86527L17.2061 8.86523ZM14.3291 6.0498V4.71658H6.9873V6.0498V7.38303H14.3291V6.0498ZM6.9873 6.0498H5.65408V12.9424H6.9873H8.32053V6.0498H6.9873ZM43.9922 6.24121V4.90799H29.1104V6.24121V7.57444H43.9922V6.24121ZM29.1104 6.24121H30.4436V2.74707H29.1104H27.7771V6.24121H29.1104ZM29.1104 2.74707V4.0803H43.9922V2.74707V1.41385H29.1104V2.74707ZM43.9922 2.74707H42.659V6.24121H43.9922H45.3254V2.74707H43.9922Z" fill="white" mask="url(#path-1-inside-1_1938_4662)"/>
</svg>
